Patient4_TMGait_0pt4_02_right_19_EMG.mot
version=1
nRows=27
nColumns=33
inDegrees=no
endheader
time	1LAddLong	2LGlutMax	3LGlutMed	4LIliopsoas	5LSemiMemb	6LBicFemLong	7LRecFem	8LVastMed	9LVastLat	10LGasMed	11LTibAnt	12lTibPost	13LPeroneusLong	14LSol	15LExtDigLong	16LFlexDigLong	17RAddLong	18RGlutMax	19RGlutMed	20RIliopsoas	21RSemiMemb	22RBicFemLong	23RRecFem	24RVastMed	25RVastLat	26RGasMed	27RTibAnt	28RTibPost	29RPeroneusLong	30RSol	31RExtDigLong	32RFlexDigLong
25.27	-0.019684	-0.18112	0.031128	-0.010376	-0.000305	-0.056152	0.054474	0.008545	0.034332	-0.029755	0.40802	-0.005646	-0.028839	0.093079	0.059967	0.01297	-0.016022	-0.63492	-0.33783	0.031891	0.41565	-0.19714	-0.006714	-0.20935	-0.18524	-0.040741	-0.054321	-0.027771	-0.43961	-0.9465	-0.006714	-0.000458
25.271	-0.018921	-0.20691	0.028839	-0.008698	-0.005493	-0.052795	0.089722	0.010986	0.024261	-0.002441	0.21439	-0.005035	-0.12329	0.019836	0.043793	0.00824	0.030975	-0.56274	-0.05722	0.34775	0.053406	-0.39627	0.034027	-0.056763	-0.20233	-0.016479	-0.012054	-0.20874	0.49515	-1.12	-0.007629	-0.010681
25.272	-0.01358	-0.23529	0.028687	-0.016174	-0.007477	-0.070953	0.11658	0.011139	0.042572	0.011902	0.17563	-0.008392	-0.13565	0.095215	0.65948	-0.009003	0.10315	-0.59128	0.2327	0.33936	-0.18066	-0.57388	0.018463	0.036011	-0.12085	-0.054321	-0.063171	-0.020752	1.0249	-0.70648	-0.008698	-0.005035
25.273	-0.013275	-0.22598	0.041504	0.011139	0.006714	-0.06424	0.16724	0.008545	0.034027	0.032043	0.20996	-0.001678	-0.12421	0.18021	-0.59296	0.00946	0.12238	-0.63324	-1.2535	0.18265	-0.44113	-0.63232	0.15793	0.065155	-0.08667	-0.060883	-0.04303	0.1416	1.6898	0.20584	-0.007324	0.000305
25.274	-0.013275	-0.20569	0.057526	0.036926	-0.000305	-0.051727	0.18692	0.007477	0.061646	0.00946	-0.17914	-0.001984	0.10162	0.15778	-0.47241	0.010071	0.007477	-0.5275	-2.0711	0.014038	-0.61676	-0.60364	0.27283	0.053406	-0.11688	0.001678	-0.043488	0.14572	1.4581	0.28366	-0.008392	-0.005951
25.275	-0.005951	-0.2095	0.060577	0.034485	0.009613	-0.063171	0.1918	0.005798	0.054779	0.018158	-0.24948	-0.004425	0.13733	0.055542	-0.55893	0.002289	-0.10346	-0.49759	-1.4944	-0.011902	-0.63644	-0.50659	0.30792	0.063782	0.038757	0.044708	-0.04776	0.12711	0.63477	0.25391	-0.010071	-0.005493
25.276	-0.005493	-0.2034	0.074158	0.028687	0.025177	-0.049286	0.17578	0.005035	0.06073	0.020599	-0.42618	-0.00412	0.035706	0.13611	-0.46982	0.009766	-0.11856	-0.55924	0.42602	-0.044861	-0.1004	-0.28198	0.10407	0.14923	0.46295	0.019073	0.005646	0.049438	-0.044098	0.4866	-0.006561	-0.003357
25.277	-0.01236	-0.22064	0.068817	0.065918	0.018616	-0.047607	0.18066	0.00351	0.061493	0.011597	-0.54459	-0.008698	-0.003204	0.18982	-0.070953	0.012207	-0.12009	-0.63461	2.0393	-0.034637	0.33096	-0.15274	-0.12863	0.17731	0.48294	0.003662	0.060425	-0.047607	0.077667	0.49972	-0.013733	-0.001221
25.278	-0.004883	-0.22995	0.085449	0.047455	0.010529	-0.037384	0.14435	0.005493	0.056152	0.01358	-0.1442	-0.001984	0.005951	0.1355	-0.13245	-0.004578	-0.11963	-0.68893	1.4809	0.041504	0.47195	-0.079346	-0.14526	0.20477	0.22736	-0.016479	0.041962	-0.28824	0.17044	0.95535	-0.008392	0.007782
25.279	-0.001221	-0.24216	0.073395	0.010986	0.000305	-0.027313	0.18188	0.006256	0.073395	-0.016632	0.032349	-0.000458	0.055695	0.048828	-0.092773	-0.003357	-0.1474	-0.75562	0.88516	-0.026703	0.26932	0.013428	-0.35339	0.066528	0.010681	-0.023499	0.038147	0.11795	0.074615	0.46265	-0.010376	0.005035
25.28	0.010529	-0.21286	0.046844	-0.010681	0.013123	-0.041199	0.1236	0.005798	0.08255	-0.068512	-0.007782	-0.003357	0.10422	-0.094147	-0.51498	-0.000916	-0.090942	-0.71625	0.92773	-0.024109	0.271	0.067749	-0.28473	-0.002289	-0.19043	-0.009766	0.054626	0.16953	-0.058594	0.14984	-0.006714	0.002289
25.281	-0.000305	-0.18921	0.001373	-0.017395	-0.000458	-0.04364	0.070648	0	0.092621	-0.049744	-0.049438	-0.001068	-0.00412	-0.18494	-0.35873	-0.009003	-0.053101	-0.64804	-0.24582	0.045776	0.19684	0.071869	0.012817	0.02182	-0.42679	0.003662	0.020905	0.073395	-0.12619	0.21637	-0.008698	0.009308
25.282	0.014496	-0.16724	0.014801	-0.014038	0.002136	-0.039368	0.088348	-0.004883	0.11414	0.009308	-0.26779	-0.007935	-0.18997	-0.23254	-0.33386	-0.011139	-0.021362	-0.6424	-0.94986	-0.001984	0.10468	0.066833	0.34897	0.085754	-0.49332	0.015259	-0.014954	0.015564	-0.1886	-0.017548	-0.009308	0.007477
25.283	0.015564	-0.18738	0.024261	-0.020447	0.010986	-0.027161	0.12177	-0.001221	0.11368	0.007629	-0.31403	-0.005188	-0.18112	-0.25375	-0.14191	-0.00351	0.001984	-0.72266	-0.64072	0.002136	0.025177	0.075836	0.50201	0.053711	-0.21072	0.015411	-0.035553	-0.019684	-0.076141	-0.36057	-0.004883	0.01297
25.284	0.015564	-0.1831	0.04776	-0.019073	-0.013275	-0.013428	0.22217	-0.003967	0.089874	-0.046692	-0.14343	-0.00351	-0.032959	-0.3244	0.19333	0.009766	0.000763	-0.72952	-0.58029	-0.010986	0.058289	-0.000305	0.51193	-0.00351	-0.058289	0.001221	-0.015259	-0.024414	0.24063	-0.29098	-0.005646	-0.000305
25.285	0.010986	-0.14511	0.079803	-0.004425	0.001068	-0.0354	0.27329	-0.005493	0.093842	-0.00946	0.18692	-0.003204	0.003204	-0.39169	0.43243	0.00473	-0.011139	-0.77805	-0.58105	0.03891	0.10498	0.047913	0.39337	-0.049591	-0.000305	0.015564	-0.033569	-0.020447	0.50705	-0.14175	-0.007019	0.00351
25.286	0.000916	-0.088043	0.09552	-0.010529	-0.001373	-0.042114	0.22995	-0.007172	0.092773	0.032349	0.32074	-0.005646	-0.020142	-0.36774	0.33691	0.006561	-0.018158	-0.76141	-0.6514	0.076752	0.093689	0.046692	0.40207	-0.017242	0.020447	0.020905	-0.039673	-0.027466	0.54398	-0.11932	-0.007629	0.006561
25.287	-0.003204	-0.054474	0.15121	0.002747	0.001526	-0.055695	0.19104	0.001831	0.10696	0.049133	0.3067	-0.003662	-0.055389	-0.20477	0.57129	-0.010071	-0.027771	-0.70068	-0.56656	0.045776	-0.12085	0.049896	0.33676	0.055237	-0.019836	0.007019	0.009155	-0.032654	0.26062	0.040283	-0.007477	0.006409
25.288	-0.003204	-0.054779	0.16342	0.040131	0.014801	-0.053406	0.14954	0.00351	0.1326	0.031128	-0.14023	-0.001526	-0.019226	-0.044861	0.16266	-0.002899	-0.01709	-0.80887	-0.20615	-0.00412	-0.17731	-0.037079	0.29251	0.020752	-0.007172	0.014038	0.075073	-0.0383	0.10071	0.22507	-0.003052	0.009766
25.289	-0.004272	-0.042572	0.17914	0.033569	0.01709	-0.07431	0.12161	0.000458	0.1413	-0.010986	-0.37689	-0.000153	0.039673	0.039368	0.50797	0.010223	0.012817	-0.96481	-0.43884	-0.038147	-0.057526	-0.097656	0.41855	-0.084076	-0.015259	0.024109	-0.001678	-0.047913	0.10559	0.21393	-0.006866	0.009308
25.29	-0.00351	0.005646	0.22522	0.026093	0.017395	-0.085907	0.073242	0.000916	0.15686	-0.029449	-0.063324	-0.000458	0.039063	0.14297	1.0059	-0.005035	0.021057	-0.8902	0.42236	-0.022278	-0.045166	-0.12116	0.40161	-0.16464	-0.041962	0.014801	-0.018768	-0.083923	0.0737	0.61035	-0.007782	0.016479
25.291	-0.010071	0.079498	0.31296	0.024261	0.002747	-0.06485	0.031128	-0.003052	0.16007	-0.036774	0.06073	-0.001221	0.005951	0.14313	0.30167	-0.007019	0.040436	-0.99442	0.36102	0.066833	-0.038757	-0.12802	0.44784	-0.086975	-0.036469	-0.030365	-0.02121	-0.076141	-0.11841	1.073	-0.005341	0.014191
25.292	-0.00351	0.12436	0.30807	0.013275	0.019226	-0.066223	0.073242	0.00061	0.17654	-0.02182	-0.052643	0.008698	-0.01709	0.071259	0.072021	-0.013885	0.025024	-1.1185	-0.21805	0.078735	0.022736	-0.18417	0.49255	-0.01709	-0.005493	-0.050354	-0.063171	0.030975	-0.16541	0.67658	-0.007782	0.016479
25.293	-0.004272	0.14023	0.22079	-0.015411	0.004272	-0.057831	0.11398	0.003204	0.15305	0.009308	-0.11444	-0.014801	-0.07843	0.054626	-0.47592	-0.009155	0.036163	-1.2622	-1.6032	0.005646	0.07431	-0.11093	0.4982	-0.045929	-0.015564	-0.024719	-0.12375	-0.003662	-0.26047	0.17929	-0.010071	0.011292
25.294	-0.007477	0.19669	0.1738	-0.024567	0.010529	-0.049286	0.18692	0.003967	0.15335	0.037079	-0.073395	0.010681	-0.12436	0.013885	-0.57205	-0.005188	0.038757	-1.0941	-1.6858	-0.037231	0.038452	-0.032806	0.32364	-0.053711	-0.06546	-0.015869	-0.1178	0.02655	-0.27527	0.36377	-0.007629	-0.000153
25.295	-0.001984	0.20477	0.13962	0.015869	0.001221	-0.041504	0.215	0.003204	0.1387	0.032349	-0.078278	-0.020294	-0.11643	0.025024	-0.31967	-0.013428	0.019226	-0.99991	-1.051	0.001831	-0.099182	0.070648	0.33142	-0.003815	-0.072784	-0.016785	-0.002747	-0.041656	-0.078278	0.034027	-0.007629	0.016632
25.296	-0.005798	0.18845	0.1091	0.037384	0.015106	-0.044403	0.25589	0.004425	0.15549	0.0177	-0.033722	0.008087	-0.072479	0.058136	-0.21713	0.002899	-0.018158	-1.0031	-0.73074	-0.034637	-0.21729	0.20172	0.49637	-0.064392	-0.14221	-0.02121	0.19577	-0.1889	0.084991	-0.49347	-0.00412	0.02594
